# xmcd
#
# Track frame offsets:
#	150
#	25332
#	50437
#	78769
#	103993
#	127100
#	149207
#	177575
#	204770
#	230139
#	251008
#	273047
#	301550
#
# Disc length: 4298 seconds
#
# Revision: 1
# Processed by: cddbd v1.5.1PL0 Copyright (c) Steve Scherf et al.
# Submitted via: CDex 1.50Beta5
#
DISCID=b710c80d
DTITLE=曹 雪晶 - 「癒」〜快適生活サウンド〜
DYEAR=1900
DGENRE=エイジ
TTITLE0=Night in Paradise
TTITLE1=Quiet Summer
TTITLE2=上海ストーリー
TTITLE3=想い出の街の人々
TTITLE4=昼下がりのささやき
TTITLE5=7月の雨
TTITLE6=月に恋した向日葵
TTITLE7=Memories of Wind
TTITLE8=草原讃歌
TTITLE9=君とおくりもの
TTITLE10=日陰の向こうから
TTITLE11=微笑み
TTITLE12=put your hands up 〜「筑紫哲也NEWS23」テーマ
EXTD=
EXTT0=
EXTT1=
EXTT2=
EXTT3=
EXTT4=
EXTT5=
EXTT6=
EXTT7=
EXTT8=
EXTT9=
EXTT10=
EXTT11=
EXTT12=
PLAYORDER=
